solid OpenSCAD_Model
  facet normal 0 0 -1
    outer loop
      vertex -18 0 -5
      vertex -17.6067 3.74241 -5
      vertex -17.6067 -3.74241 -5
    endloop
  endfacet
  facet normal 0 0 -1
    outer loop
      vertex -17.6067 -3.74241 -5
      vertex -17.6067 3.74241 -5
      vertex -16.4438 7.32126 -5
    endloop
  endfacet
  facet normal 0 0 -1
    outer loop
      vertex -17.6067 -3.74241 -5
      vertex -16.4438 7.32126 -5
      vertex -14.5623 10.5801 -5
    endloop
  endfacet
  facet normal 0 0 -1
    outer loop
      vertex -17.6067 -3.74241 -5
      vertex -14.5623 10.5801 -5
      vertex -12.0444 13.3766 -5
    endloop
  endfacet
  facet normal 0 0 -1
    outer loop
      vertex -17.6067 -3.74241 -5
      vertex -12.0444 13.3766 -5
      vertex -9 15.5885 -5
    endloop
  endfacet
  facet normal 0 0 -1
    outer loop
      vertex -11.3262 8.22899 -5
      vertex -9 15.5885 -5
      vertex -5.56231 17.119 -5
    endloop
  endfacet
  facet normal 0 0 -1
    outer loop
      vertex -7 12.1244 -5
      vertex -5.56231 17.119 -5
      vertex -1.88151 17.9014 -5
    endloop
  endfacet
  facet normal 0 0 -1
    outer loop
      vertex -4.32624 13.3148 -5
      vertex -1.88151 17.9014 -5
      vertex 1.88151 17.9014 -5
    endloop
  endfacet
  facet normal 0 0 -1
    outer loop
      vertex 1.4634 13.9233 -5
      vertex 1.88151 17.9014 -5
      vertex 5.56231 17.119 -5
    endloop
  endfacet
  facet normal 0 0 -1
    outer loop
      vertex 4.32624 13.3148 -5
      vertex 5.56231 17.119 -5
      vertex 9 15.5885 -5
    endloop
  endfacet
  facet normal 0 0 -1
    outer loop
      vertex 7 12.1244 -5
      vertex 9 15.5885 -5
      vertex 12.0444 13.3766 -5
    endloop
  endfacet
  facet normal 0 0 -1
    outer loop
      vertex 9.36783 10.404 -5
      vertex 12.0444 13.3766 -5
      vertex 14.5623 10.5801 -5
    endloop
  endfacet
  facet normal 0 0 -1
    outer loop
      vertex 11.3262 8.22899 -5
      vertex 14.5623 10.5801 -5
      vertex 16.4438 7.32126 -5
    endloop
  endfacet
  facet normal 0 0 -1
    outer loop
      vertex 13.6941 2.91076 -5
      vertex 16.4438 7.32126 -5
      vertex 17.6067 3.74241 -5
    endloop
  endfacet
  facet normal 0 0 -1
    outer loop
      vertex 14 0 -5
      vertex 17.6067 3.74241 -5
      vertex 18 0 -5
    endloop
  endfacet
  facet normal 0 0 -1
    outer loop
      vertex 13.6941 -2.91076 -5
      vertex 18 0 -5
      vertex 17.6067 -3.74241 -5
    endloop
  endfacet
  facet normal 0 0 -1
    outer loop
      vertex 12.7896 -5.69431 -5
      vertex 17.6067 -3.74241 -5
      vertex 16.4438 -7.32126 -5
    endloop
  endfacet
  facet normal 0 0 -1
    outer loop
      vertex 11.3262 -8.22899 -5
      vertex 16.4438 -7.32126 -5
      vertex 14.5623 -10.5801 -5
    endloop
  endfacet
  facet normal 0 0 -1
    outer loop
      vertex 9.36783 -10.404 -5
      vertex 14.5623 -10.5801 -5
      vertex 12.0444 -13.3766 -5
    endloop
  endfacet
  facet normal 0 0 -1
    outer loop
      vertex 4.32624 -13.3148 -5
      vertex 12.0444 -13.3766 -5
      vertex 9 -15.5885 -5
    endloop
  endfacet
  facet normal 0 0 -1
    outer loop
      vertex 1.4634 -13.9233 -5
      vertex 9 -15.5885 -5
      vertex 5.56231 -17.119 -5
    endloop
  endfacet
  facet normal 0 0 -1
    outer loop
      vertex -4.32624 -13.3148 -5
      vertex 5.56231 -17.119 -5
      vertex 1.88151 -17.9014 -5
    endloop
  endfacet
  facet normal 0 0 -1
    outer loop
      vertex -7 -12.1244 -5
      vertex 1.88151 -17.9014 -5
      vertex -1.88151 -17.9014 -5
    endloop
  endfacet
  facet normal 0 0 -1
    outer loop
      vertex -17.6067 -3.74241 -5
      vertex -1.88151 -17.9014 -5
      vertex -5.56231 -17.119 -5
    endloop
  endfacet
  facet normal 0 0 -1
    outer loop
      vertex -17.6067 -3.74241 -5
      vertex -5.56231 -17.119 -5
      vertex -9 -15.5885 -5
    endloop
  endfacet
  facet normal 0 0 -1
    outer loop
      vertex -17.6067 -3.74241 -5
      vertex -9 -15.5885 -5
      vertex -12.0444 -13.3766 -5
    endloop
  endfacet
  facet normal 0 0 -1
    outer loop
      vertex -17.6067 -3.74241 -5
      vertex -12.0444 -13.3766 -5
      vertex -14.5623 -10.5801 -5
    endloop
  endfacet
  facet normal 0 0 -1
    outer loop
      vertex -17.6067 -3.74241 -5
      vertex -14.5623 -10.5801 -5
      vertex -16.4438 -7.32126 -5
    endloop
  endfacet
  facet normal 0 0 -1
    outer loop
      vertex -13.6941 -2.91076 -5
      vertex -17.6067 -3.74241 -5
      vertex -14 0 -5
    endloop
  endfacet
  facet normal 0 0 -1
    outer loop
      vertex -12.7896 -5.69431 -5
      vertex -17.6067 -3.74241 -5
      vertex -13.6941 -2.91076 -5
    endloop
  endfacet
  facet normal 0 0 -1
    outer loop
      vertex -11.3262 -8.22899 -5
      vertex -17.6067 -3.74241 -5
      vertex -12.7896 -5.69431 -5
    endloop
  endfacet
  facet normal 0 0 -1
    outer loop
      vertex -9.36783 -10.404 -5
      vertex -17.6067 -3.74241 -5
      vertex -11.3262 -8.22899 -5
    endloop
  endfacet
  facet normal 0 0 -1
    outer loop
      vertex -4.32624 -13.3148 -5
      vertex 1.88151 -17.9014 -5
      vertex -7 -12.1244 -5
    endloop
  endfacet
  facet normal 0 0 -1
    outer loop
      vertex -17.6067 -3.74241 -5
      vertex -9.36783 -10.404 -5
      vertex -1.88151 -17.9014 -5
    endloop
  endfacet
  facet normal 0 0 -1
    outer loop
      vertex -9.36783 -10.404 -5
      vertex -7 -12.1244 -5
      vertex -1.88151 -17.9014 -5
    endloop
  endfacet
  facet normal 0 0 -1
    outer loop
      vertex -1.4634 -13.9233 -5
      vertex 5.56231 -17.119 -5
      vertex -4.32624 -13.3148 -5
    endloop
  endfacet
  facet normal 0 0 -1
    outer loop
      vertex 1.4634 -13.9233 -5
      vertex 5.56231 -17.119 -5
      vertex -1.4634 -13.9233 -5
    endloop
  endfacet
  facet normal 0 0 -1
    outer loop
      vertex 7 -12.1244 -5
      vertex 12.0444 -13.3766 -5
      vertex 4.32624 -13.3148 -5
    endloop
  endfacet
  facet normal 0 0 -1
    outer loop
      vertex 9.36783 -10.404 -5
      vertex 12.0444 -13.3766 -5
      vertex 7 -12.1244 -5
    endloop
  endfacet
  facet normal 0 0 -1
    outer loop
      vertex 4.32624 -13.3148 -5
      vertex 9 -15.5885 -5
      vertex 1.4634 -13.9233 -5
    endloop
  endfacet
  facet normal 0 0 -1
    outer loop
      vertex 13.6941 2.91076 -5
      vertex 17.6067 3.74241 -5
      vertex 14 0 -5
    endloop
  endfacet
  facet normal 0 0 -1
    outer loop
      vertex 12.7896 5.69431 -5
      vertex 16.4438 7.32126 -5
      vertex 13.6941 2.91076 -5
    endloop
  endfacet
  facet normal 0 0 -1
    outer loop
      vertex 14 0 -5
      vertex 18 0 -5
      vertex 13.6941 -2.91076 -5
    endloop
  endfacet
  facet normal 0 0 -1
    outer loop
      vertex 13.6941 -2.91076 -5
      vertex 17.6067 -3.74241 -5
      vertex 12.7896 -5.69431 -5
    endloop
  endfacet
  facet normal 0 0 -1
    outer loop
      vertex 12.7896 -5.69431 -5
      vertex 16.4438 -7.32126 -5
      vertex 11.3262 -8.22899 -5
    endloop
  endfacet
  facet normal 0 0 -1
    outer loop
      vertex 11.3262 -8.22899 -5
      vertex 14.5623 -10.5801 -5
      vertex 9.36783 -10.404 -5
    endloop
  endfacet
  facet normal 0 0 -1
    outer loop
      vertex -1.4634 13.9233 -5
      vertex 1.88151 17.9014 -5
      vertex 1.4634 13.9233 -5
    endloop
  endfacet
  facet normal 0 0 -1
    outer loop
      vertex -4.32624 13.3148 -5
      vertex 1.88151 17.9014 -5
      vertex -1.4634 13.9233 -5
    endloop
  endfacet
  facet normal 0 0 -1
    outer loop
      vertex 1.4634 13.9233 -5
      vertex 5.56231 17.119 -5
      vertex 4.32624 13.3148 -5
    endloop
  endfacet
  facet normal 0 0 -1
    outer loop
      vertex -9.36783 10.404 -5
      vertex -5.56231 17.119 -5
      vertex -7 12.1244 -5
    endloop
  endfacet
  facet normal 0 0 -1
    outer loop
      vertex -12.7896 5.69431 -5
      vertex -9 15.5885 -5
      vertex -11.3262 8.22899 -5
    endloop
  endfacet
  facet normal 0 0 -1
    outer loop
      vertex -13.6941 2.91076 -5
      vertex -17.6067 -3.74241 -5
      vertex -12.7896 5.69431 -5
    endloop
  endfacet
  facet normal 0 0 -1
    outer loop
      vertex -17.6067 -3.74241 -5
      vertex -9 15.5885 -5
      vertex -12.7896 5.69431 -5
    endloop
  endfacet
  facet normal 0 0 -1
    outer loop
      vertex 4.32624 13.3148 -5
      vertex 9 15.5885 -5
      vertex 7 12.1244 -5
    endloop
  endfacet
  facet normal 0 0 -1
    outer loop
      vertex -14 0 -5
      vertex -17.6067 -3.74241 -5
      vertex -13.6941 2.91076 -5
    endloop
  endfacet
  facet normal 0 0 -1
    outer loop
      vertex -11.3262 8.22899 -5
      vertex -5.56231 17.119 -5
      vertex -9.36783 10.404 -5
    endloop
  endfacet
  facet normal 0 0 -1
    outer loop
      vertex -7 12.1244 -5
      vertex -1.88151 17.9014 -5
      vertex -4.32624 13.3148 -5
    endloop
  endfacet
  facet normal 0 0 -1
    outer loop
      vertex 7 12.1244 -5
      vertex 12.0444 13.3766 -5
      vertex 9.36783 10.404 -5
    endloop
  endfacet
  facet normal 0 0 -1
    outer loop
      vertex 9.36783 10.404 -5
      vertex 14.5623 10.5801 -5
      vertex 11.3262 8.22899 -5
    endloop
  endfacet
  facet normal 0 0 -1
    outer loop
      vertex 11.3262 8.22899 -5
      vertex 16.4438 7.32126 -5
      vertex 12.7896 5.69431 -5
    endloop
  endfacet
  facet normal -0.994522 0.104528 0
    outer loop
      vertex -18 0 -5
      vertex -18 0 15
      vertex -17.6067 3.74241 -5
    endloop
  endfacet
  facet normal -0.994522 0.104528 0
    outer loop
      vertex -17.6067 3.74241 -5
      vertex -18 0 15
      vertex -17.6067 3.74241 15
    endloop
  endfacet
  facet normal -0.994522 -0.104528 0
    outer loop
      vertex -18 0 -5
      vertex -17.6067 -3.74241 -5
      vertex -18 0 15
    endloop
  endfacet
  facet normal -0.994522 -0.104528 0
    outer loop
      vertex -18 0 15
      vertex -17.6067 -3.74241 -5
      vertex -17.6067 -3.74241 15
    endloop
  endfacet
  facet normal -0.951057 -0.309017 0
    outer loop
      vertex -17.6067 -3.74241 -5
      vertex -16.4438 -7.32126 -5
      vertex -17.6067 -3.74241 15
    endloop
  endfacet
  facet normal -0.951057 -0.309017 0
    outer loop
      vertex -17.6067 -3.74241 15
      vertex -16.4438 -7.32126 -5
      vertex -16.4438 -7.32126 15
    endloop
  endfacet
  facet normal -0.866025 -0.5 0
    outer loop
      vertex -16.4438 -7.32126 -5
      vertex -14.5623 -10.5801 -5
      vertex -16.4438 -7.32126 15
    endloop
  endfacet
  facet normal -0.866025 -0.5 0
    outer loop
      vertex -16.4438 -7.32126 15
      vertex -14.5623 -10.5801 -5
      vertex -14.5623 -10.5801 15
    endloop
  endfacet
  facet normal -0.743145 -0.669131 0
    outer loop
      vertex -14.5623 -10.5801 -5
      vertex -12.0444 -13.3766 -5
      vertex -14.5623 -10.5801 15
    endloop
  endfacet
  facet normal -0.743145 -0.669131 0
    outer loop
      vertex -14.5623 -10.5801 15
      vertex -12.0444 -13.3766 -5
      vertex -12.0444 -13.3766 15
    endloop
  endfacet
  facet normal -0.587785 -0.809017 0
    outer loop
      vertex -12.0444 -13.3766 15
      vertex -12.0444 -13.3766 -5
      vertex -9 -15.5885 -5
    endloop
  endfacet
  facet normal -0.587785 -0.809017 0
    outer loop
      vertex -9 -15.5885 15
      vertex -12.0444 -13.3766 15
      vertex -9 -15.5885 -5
    endloop
  endfacet
  facet normal -0.406737 -0.913545 0
    outer loop
      vertex -9 -15.5885 15
      vertex -9 -15.5885 -5
      vertex -5.56231 -17.119 -5
    endloop
  endfacet
  facet normal -0.406737 -0.913545 0
    outer loop
      vertex -5.56231 -17.119 15
      vertex -9 -15.5885 15
      vertex -5.56231 -17.119 -5
    endloop
  endfacet
  facet normal -0.207912 -0.978148 0
    outer loop
      vertex -5.56231 -17.119 15
      vertex -5.56231 -17.119 -5
      vertex -1.88151 -17.9014 -5
    endloop
  endfacet
  facet normal -0.207912 -0.978148 0
    outer loop
      vertex -1.88151 -17.9014 15
      vertex -5.56231 -17.119 15
      vertex -1.88151 -17.9014 -5
    endloop
  endfacet
  facet normal 0 -1 0
    outer loop
      vertex -1.88151 -17.9014 15
      vertex -1.88151 -17.9014 -5
      vertex 1.88151 -17.9014 -5
    endloop
  endfacet
  facet normal 0 -1 0
    outer loop
      vertex 1.88151 -17.9014 15
      vertex -1.88151 -17.9014 15
      vertex 1.88151 -17.9014 -5
    endloop
  endfacet
  facet normal 0.207912 -0.978148 0
    outer loop
      vertex 1.88151 -17.9014 15
      vertex 1.88151 -17.9014 -5
      vertex 5.56231 -17.119 -5
    endloop
  endfacet
  facet normal 0.207912 -0.978148 0
    outer loop
      vertex 5.56231 -17.119 15
      vertex 1.88151 -17.9014 15
      vertex 5.56231 -17.119 -5
    endloop
  endfacet
  facet normal 0.406737 -0.913545 0
    outer loop
      vertex 5.56231 -17.119 15
      vertex 5.56231 -17.119 -5
      vertex 9 -15.5885 -5
    endloop
  endfacet
  facet normal 0.406737 -0.913545 0
    outer loop
      vertex 9 -15.5885 15
      vertex 5.56231 -17.119 15
      vertex 9 -15.5885 -5
    endloop
  endfacet
  facet normal 0.587785 -0.809017 0
    outer loop
      vertex 9 -15.5885 15
      vertex 9 -15.5885 -5
      vertex 12.0444 -13.3766 -5
    endloop
  endfacet
  facet normal 0.587785 -0.809017 0
    outer loop
      vertex 12.0444 -13.3766 15
      vertex 9 -15.5885 15
      vertex 12.0444 -13.3766 -5
    endloop
  endfacet
  facet normal 0.743145 -0.669131 0
    outer loop
      vertex 12.0444 -13.3766 15
      vertex 12.0444 -13.3766 -5
      vertex 14.5623 -10.5801 -5
    endloop
  endfacet
  facet normal 0.743145 -0.669131 0
    outer loop
      vertex 14.5623 -10.5801 15
      vertex 12.0444 -13.3766 15
      vertex 14.5623 -10.5801 -5
    endloop
  endfacet
  facet normal 0.866025 -0.5 0
    outer loop
      vertex 14.5623 -10.5801 15
      vertex 14.5623 -10.5801 -5
      vertex 16.4438 -7.32126 -5
    endloop
  endfacet
  facet normal 0.866025 -0.5 0
    outer loop
      vertex 16.4438 -7.32126 15
      vertex 14.5623 -10.5801 15
      vertex 16.4438 -7.32126 -5
    endloop
  endfacet
  facet normal 0.951057 -0.309017 0
    outer loop
      vertex 16.4438 -7.32126 15
      vertex 16.4438 -7.32126 -5
      vertex 17.6067 -3.74241 -5
    endloop
  endfacet
  facet normal 0.951057 -0.309017 0
    outer loop
      vertex 17.6067 -3.74241 15
      vertex 16.4438 -7.32126 15
      vertex 17.6067 -3.74241 -5
    endloop
  endfacet
  facet normal 0.994522 -0.104528 0
    outer loop
      vertex 17.6067 -3.74241 15
      vertex 17.6067 -3.74241 -5
      vertex 18 0 -5
    endloop
  endfacet
  facet normal 0.994522 -0.104528 0
    outer loop
      vertex 18 0 15
      vertex 17.6067 -3.74241 15
      vertex 18 0 -5
    endloop
  endfacet
  facet normal 0.994522 0.104528 0
    outer loop
      vertex 18 0 -5
      vertex 17.6067 3.74241 -5
      vertex 17.6067 3.74241 15
    endloop
  endfacet
  facet normal 0.994522 0.104528 0
    outer loop
      vertex 18 0 15
      vertex 18 0 -5
      vertex 17.6067 3.74241 15
    endloop
  endfacet
  facet normal 0.951057 0.309017 0
    outer loop
      vertex 17.6067 3.74241 -5
      vertex 16.4438 7.32126 -5
      vertex 16.4438 7.32126 15
    endloop
  endfacet
  facet normal 0.951057 0.309017 0
    outer loop
      vertex 17.6067 3.74241 15
      vertex 17.6067 3.74241 -5
      vertex 16.4438 7.32126 15
    endloop
  endfacet
  facet normal 0.866025 0.5 0
    outer loop
      vertex 16.4438 7.32126 -5
      vertex 14.5623 10.5801 -5
      vertex 14.5623 10.5801 15
    endloop
  endfacet
  facet normal 0.866025 0.5 0
    outer loop
      vertex 16.4438 7.32126 15
      vertex 16.4438 7.32126 -5
      vertex 14.5623 10.5801 15
    endloop
  endfacet
  facet normal 0.743145 0.669131 0
    outer loop
      vertex 14.5623 10.5801 -5
      vertex 12.0444 13.3766 -5
      vertex 12.0444 13.3766 15
    endloop
  endfacet
  facet normal 0.743145 0.669131 0
    outer loop
      vertex 14.5623 10.5801 15
      vertex 14.5623 10.5801 -5
      vertex 12.0444 13.3766 15
    endloop
  endfacet
  facet normal 0.587785 0.809017 0
    outer loop
      vertex 9 15.5885 -5
      vertex 9 15.5885 15
      vertex 12.0444 13.3766 -5
    endloop
  endfacet
  facet normal 0.587785 0.809017 0
    outer loop
      vertex 12.0444 13.3766 -5
      vertex 9 15.5885 15
      vertex 12.0444 13.3766 15
    endloop
  endfacet
  facet normal 0.406737 0.913545 0
    outer loop
      vertex 5.56231 17.119 -5
      vertex 5.56231 17.119 15
      vertex 9 15.5885 -5
    endloop
  endfacet
  facet normal 0.406737 0.913545 0
    outer loop
      vertex 9 15.5885 -5
      vertex 5.56231 17.119 15
      vertex 9 15.5885 15
    endloop
  endfacet
  facet normal 0.207912 0.978148 0
    outer loop
      vertex 1.88151 17.9014 -5
      vertex 1.88151 17.9014 15
      vertex 5.56231 17.119 -5
    endloop
  endfacet
  facet normal 0.207912 0.978148 0
    outer loop
      vertex 5.56231 17.119 -5
      vertex 1.88151 17.9014 15
      vertex 5.56231 17.119 15
    endloop
  endfacet
  facet normal 0 1 0
    outer loop
      vertex -1.88151 17.9014 -5
      vertex -1.88151 17.9014 15
      vertex 1.88151 17.9014 -5
    endloop
  endfacet
  facet normal 0 1 0
    outer loop
      vertex 1.88151 17.9014 -5
      vertex -1.88151 17.9014 15
      vertex 1.88151 17.9014 15
    endloop
  endfacet
  facet normal -0.207912 0.978148 0
    outer loop
      vertex -5.56231 17.119 -5
      vertex -5.56231 17.119 15
      vertex -1.88151 17.9014 -5
    endloop
  endfacet
  facet normal -0.207912 0.978148 0
    outer loop
      vertex -1.88151 17.9014 -5
      vertex -5.56231 17.119 15
      vertex -1.88151 17.9014 15
    endloop
  endfacet
  facet normal -0.406737 0.913545 0
    outer loop
      vertex -9 15.5885 -5
      vertex -9 15.5885 15
      vertex -5.56231 17.119 -5
    endloop
  endfacet
  facet normal -0.406737 0.913545 0
    outer loop
      vertex -5.56231 17.119 -5
      vertex -9 15.5885 15
      vertex -5.56231 17.119 15
    endloop
  endfacet
  facet normal -0.587785 0.809017 0
    outer loop
      vertex -12.0444 13.3766 -5
      vertex -12.0444 13.3766 15
      vertex -9 15.5885 -5
    endloop
  endfacet
  facet normal -0.587785 0.809017 0
    outer loop
      vertex -9 15.5885 -5
      vertex -12.0444 13.3766 15
      vertex -9 15.5885 15
    endloop
  endfacet
  facet normal -0.743145 0.669131 0
    outer loop
      vertex -14.5623 10.5801 -5
      vertex -14.5623 10.5801 15
      vertex -12.0444 13.3766 -5
    endloop
  endfacet
  facet normal -0.743145 0.669131 0
    outer loop
      vertex -12.0444 13.3766 -5
      vertex -14.5623 10.5801 15
      vertex -12.0444 13.3766 15
    endloop
  endfacet
  facet normal -0.866025 0.5 0
    outer loop
      vertex -16.4438 7.32126 -5
      vertex -16.4438 7.32126 15
      vertex -14.5623 10.5801 -5
    endloop
  endfacet
  facet normal -0.866025 0.5 0
    outer loop
      vertex -14.5623 10.5801 -5
      vertex -16.4438 7.32126 15
      vertex -14.5623 10.5801 15
    endloop
  endfacet
  facet normal -0.951057 0.309017 0
    outer loop
      vertex -17.6067 3.74241 -5
      vertex -17.6067 3.74241 15
      vertex -16.4438 7.32126 -5
    endloop
  endfacet
  facet normal -0.951057 0.309017 0
    outer loop
      vertex -16.4438 7.32126 -5
      vertex -17.6067 3.74241 15
      vertex -16.4438 7.32126 15
    endloop
  endfacet
  facet normal 0.994522 -0.104529 0
    outer loop
      vertex -13.6941 2.91076 -5
      vertex -13.6941 2.91076 15
      vertex -14 0 15
    endloop
  endfacet
  facet normal 0.994522 -0.104529 0
    outer loop
      vertex -14 0 -5
      vertex -13.6941 2.91076 -5
      vertex -14 0 15
    endloop
  endfacet
  facet normal 0.994522 0.104529 0
    outer loop
      vertex -14 0 15
      vertex -13.6941 -2.91076 15
      vertex -13.6941 -2.91076 -5
    endloop
  endfacet
  facet normal 0.994522 0.104529 0
    outer loop
      vertex -14 0 -5
      vertex -14 0 15
      vertex -13.6941 -2.91076 -5
    endloop
  endfacet
  facet normal 0.951057 -0.309017 0
    outer loop
      vertex -12.7896 5.69431 -5
      vertex -12.7896 5.69431 15
      vertex -13.6941 2.91076 15
    endloop
  endfacet
  facet normal 0.951057 -0.309017 0
    outer loop
      vertex -13.6941 2.91076 -5
      vertex -12.7896 5.69431 -5
      vertex -13.6941 2.91076 15
    endloop
  endfacet
  facet normal 0.866026 -0.5 0
    outer loop
      vertex -11.3262 8.22899 -5
      vertex -11.3262 8.22899 15
      vertex -12.7896 5.69431 15
    endloop
  endfacet
  facet normal 0.866026 -0.5 0
    outer loop
      vertex -12.7896 5.69431 -5
      vertex -11.3262 8.22899 -5
      vertex -12.7896 5.69431 15
    endloop
  endfacet
  facet normal 0.743145 -0.669131 0
    outer loop
      vertex -9.36783 10.404 -5
      vertex -9.36783 10.404 15
      vertex -11.3262 8.22899 15
    endloop
  endfacet
  facet normal 0.743145 -0.669131 0
    outer loop
      vertex -11.3262 8.22899 -5
      vertex -9.36783 10.404 -5
      vertex -11.3262 8.22899 15
    endloop
  endfacet
  facet normal 0.587785 -0.809017 0
    outer loop
      vertex -7 12.1244 -5
      vertex -7 12.1244 15
      vertex -9.36783 10.404 15
    endloop
  endfacet
  facet normal 0.587785 -0.809017 0
    outer loop
      vertex -9.36783 10.404 -5
      vertex -7 12.1244 -5
      vertex -9.36783 10.404 15
    endloop
  endfacet
  facet normal 0.406736 -0.913546 0
    outer loop
      vertex -4.32624 13.3148 -5
      vertex -4.32624 13.3148 15
      vertex -7 12.1244 15
    endloop
  endfacet
  facet normal 0.406736 -0.913546 0
    outer loop
      vertex -7 12.1244 -5
      vertex -4.32624 13.3148 -5
      vertex -7 12.1244 15
    endloop
  endfacet
  facet normal 0.207912 -0.978148 0
    outer loop
      vertex -1.4634 13.9233 -5
      vertex -1.4634 13.9233 15
      vertex -4.32624 13.3148 15
    endloop
  endfacet
  facet normal 0.207912 -0.978148 0
    outer loop
      vertex -4.32624 13.3148 -5
      vertex -1.4634 13.9233 -5
      vertex -4.32624 13.3148 15
    endloop
  endfacet
  facet normal 0 -1 0
    outer loop
      vertex 1.4634 13.9233 -5
      vertex 1.4634 13.9233 15
      vertex -1.4634 13.9233 15
    endloop
  endfacet
  facet normal 0 -1 0
    outer loop
      vertex -1.4634 13.9233 -5
      vertex 1.4634 13.9233 -5
      vertex -1.4634 13.9233 15
    endloop
  endfacet
  facet normal -0.207912 -0.978148 0
    outer loop
      vertex 4.32624 13.3148 -5
      vertex 4.32624 13.3148 15
      vertex 1.4634 13.9233 15
    endloop
  endfacet
  facet normal -0.207912 -0.978148 0
    outer loop
      vertex 1.4634 13.9233 -5
      vertex 4.32624 13.3148 -5
      vertex 1.4634 13.9233 15
    endloop
  endfacet
  facet normal -0.406736 -0.913546 0
    outer loop
      vertex 7 12.1244 -5
      vertex 7 12.1244 15
      vertex 4.32624 13.3148 15
    endloop
  endfacet
  facet normal -0.406736 -0.913546 0
    outer loop
      vertex 4.32624 13.3148 -5
      vertex 7 12.1244 -5
      vertex 4.32624 13.3148 15
    endloop
  endfacet
  facet normal -0.587785 -0.809017 0
    outer loop
      vertex 9.36783 10.404 -5
      vertex 9.36783 10.404 15
      vertex 7 12.1244 15
    endloop
  endfacet
  facet normal -0.587785 -0.809017 0
    outer loop
      vertex 7 12.1244 -5
      vertex 9.36783 10.404 -5
      vertex 7 12.1244 15
    endloop
  endfacet
  facet normal -0.743145 -0.669131 0
    outer loop
      vertex 11.3262 8.22899 15
      vertex 9.36783 10.404 15
      vertex 11.3262 8.22899 -5
    endloop
  endfacet
  facet normal -0.743145 -0.669131 0
    outer loop
      vertex 11.3262 8.22899 -5
      vertex 9.36783 10.404 15
      vertex 9.36783 10.404 -5
    endloop
  endfacet
  facet normal -0.866026 -0.5 0
    outer loop
      vertex 12.7896 5.69431 15
      vertex 11.3262 8.22899 15
      vertex 12.7896 5.69431 -5
    endloop
  endfacet
  facet normal -0.866026 -0.5 0
    outer loop
      vertex 12.7896 5.69431 -5
      vertex 11.3262 8.22899 15
      vertex 11.3262 8.22899 -5
    endloop
  endfacet
  facet normal -0.951057 -0.309017 0
    outer loop
      vertex 13.6941 2.91076 15
      vertex 12.7896 5.69431 15
      vertex 13.6941 2.91076 -5
    endloop
  endfacet
  facet normal -0.951057 -0.309017 0
    outer loop
      vertex 13.6941 2.91076 -5
      vertex 12.7896 5.69431 15
      vertex 12.7896 5.69431 -5
    endloop
  endfacet
  facet normal -0.994522 -0.104529 0
    outer loop
      vertex 14 0 15
      vertex 13.6941 2.91076 15
      vertex 14 0 -5
    endloop
  endfacet
  facet normal -0.994522 -0.104529 0
    outer loop
      vertex 14 0 -5
      vertex 13.6941 2.91076 15
      vertex 13.6941 2.91076 -5
    endloop
  endfacet
  facet normal -0.994522 0.104529 0
    outer loop
      vertex 14 0 15
      vertex 14 0 -5
      vertex 13.6941 -2.91076 15
    endloop
  endfacet
  facet normal -0.994522 0.104529 0
    outer loop
      vertex 13.6941 -2.91076 15
      vertex 14 0 -5
      vertex 13.6941 -2.91076 -5
    endloop
  endfacet
  facet normal -0.951057 0.309017 0
    outer loop
      vertex 13.6941 -2.91076 15
      vertex 13.6941 -2.91076 -5
      vertex 12.7896 -5.69431 15
    endloop
  endfacet
  facet normal -0.951057 0.309017 0
    outer loop
      vertex 12.7896 -5.69431 15
      vertex 13.6941 -2.91076 -5
      vertex 12.7896 -5.69431 -5
    endloop
  endfacet
  facet normal -0.866026 0.5 0
    outer loop
      vertex 12.7896 -5.69431 15
      vertex 12.7896 -5.69431 -5
      vertex 11.3262 -8.22899 15
    endloop
  endfacet
  facet normal -0.866026 0.5 0
    outer loop
      vertex 11.3262 -8.22899 15
      vertex 12.7896 -5.69431 -5
      vertex 11.3262 -8.22899 -5
    endloop
  endfacet
  facet normal -0.743145 0.669131 0
    outer loop
      vertex 11.3262 -8.22899 15
      vertex 11.3262 -8.22899 -5
      vertex 9.36783 -10.404 15
    endloop
  endfacet
  facet normal -0.743145 0.669131 0
    outer loop
      vertex 9.36783 -10.404 15
      vertex 11.3262 -8.22899 -5
      vertex 9.36783 -10.404 -5
    endloop
  endfacet
  facet normal -0.587785 0.809017 0
    outer loop
      vertex 9.36783 -10.404 15
      vertex 9.36783 -10.404 -5
      vertex 7 -12.1244 15
    endloop
  endfacet
  facet normal -0.587785 0.809017 0
    outer loop
      vertex 7 -12.1244 15
      vertex 9.36783 -10.404 -5
      vertex 7 -12.1244 -5
    endloop
  endfacet
  facet normal -0.406736 0.913546 0
    outer loop
      vertex 7 -12.1244 15
      vertex 7 -12.1244 -5
      vertex 4.32624 -13.3148 15
    endloop
  endfacet
  facet normal -0.406736 0.913546 0
    outer loop
      vertex 4.32624 -13.3148 15
      vertex 7 -12.1244 -5
      vertex 4.32624 -13.3148 -5
    endloop
  endfacet
  facet normal -0.207912 0.978148 0
    outer loop
      vertex 4.32624 -13.3148 15
      vertex 4.32624 -13.3148 -5
      vertex 1.4634 -13.9233 15
    endloop
  endfacet
  facet normal -0.207912 0.978148 0
    outer loop
      vertex 1.4634 -13.9233 15
      vertex 4.32624 -13.3148 -5
      vertex 1.4634 -13.9233 -5
    endloop
  endfacet
  facet normal 0 1 0
    outer loop
      vertex 1.4634 -13.9233 15
      vertex 1.4634 -13.9233 -5
      vertex -1.4634 -13.9233 15
    endloop
  endfacet
  facet normal 0 1 0
    outer loop
      vertex -1.4634 -13.9233 15
      vertex 1.4634 -13.9233 -5
      vertex -1.4634 -13.9233 -5
    endloop
  endfacet
  facet normal 0.207912 0.978148 0
    outer loop
      vertex -1.4634 -13.9233 15
      vertex -1.4634 -13.9233 -5
      vertex -4.32624 -13.3148 15
    endloop
  endfacet
  facet normal 0.207912 0.978148 0
    outer loop
      vertex -4.32624 -13.3148 15
      vertex -1.4634 -13.9233 -5
      vertex -4.32624 -13.3148 -5
    endloop
  endfacet
  facet normal 0.406736 0.913546 0
    outer loop
      vertex -4.32624 -13.3148 15
      vertex -4.32624 -13.3148 -5
      vertex -7 -12.1244 15
    endloop
  endfacet
  facet normal 0.406736 0.913546 0
    outer loop
      vertex -7 -12.1244 15
      vertex -4.32624 -13.3148 -5
      vertex -7 -12.1244 -5
    endloop
  endfacet
  facet normal 0.587785 0.809017 0
    outer loop
      vertex -7 -12.1244 15
      vertex -7 -12.1244 -5
      vertex -9.36783 -10.404 15
    endloop
  endfacet
  facet normal 0.587785 0.809017 0
    outer loop
      vertex -9.36783 -10.404 15
      vertex -7 -12.1244 -5
      vertex -9.36783 -10.404 -5
    endloop
  endfacet
  facet normal 0.743145 0.669131 0
    outer loop
      vertex -11.3262 -8.22899 15
      vertex -9.36783 -10.404 15
      vertex -9.36783 -10.404 -5
    endloop
  endfacet
  facet normal 0.743145 0.669131 0
    outer loop
      vertex -11.3262 -8.22899 -5
      vertex -11.3262 -8.22899 15
      vertex -9.36783 -10.404 -5
    endloop
  endfacet
  facet normal 0.866026 0.5 0
    outer loop
      vertex -12.7896 -5.69431 15
      vertex -11.3262 -8.22899 15
      vertex -11.3262 -8.22899 -5
    endloop
  endfacet
  facet normal 0.866026 0.5 0
    outer loop
      vertex -12.7896 -5.69431 -5
      vertex -12.7896 -5.69431 15
      vertex -11.3262 -8.22899 -5
    endloop
  endfacet
  facet normal 0.951057 0.309017 0
    outer loop
      vertex -13.6941 -2.91076 15
      vertex -12.7896 -5.69431 15
      vertex -12.7896 -5.69431 -5
    endloop
  endfacet
  facet normal 0.951057 0.309017 0
    outer loop
      vertex -13.6941 -2.91076 -5
      vertex -13.6941 -2.91076 15
      vertex -12.7896 -5.69431 -5
    endloop
  endfacet
  facet normal 0 0 1
    outer loop
      vertex -17.6067 3.74241 15
      vertex -18 0 15
      vertex -17.6067 -3.74241 15
    endloop
  endfacet
  facet normal 0 0 1
    outer loop
      vertex -17.4 -1.4 15
      vertex -17.6067 3.74241 15
      vertex -17.6067 -3.74241 15
    endloop
  endfacet
  facet normal 0 0 1
    outer loop
      vertex 1.4 -17.4 15
      vertex -1.4 -17.4 15
      vertex 1.88151 -17.9014 15
    endloop
  endfacet
  facet normal 0 0 1
    outer loop
      vertex -17.4 1.4 15
      vertex -14.6 1.4 15
      vertex -17.6067 3.74241 15
    endloop
  endfacet
  facet normal 0 0 1
    outer loop
      vertex 7 -12.1244 15
      vertex 4.32624 -13.3148 15
      vertex 9 -15.5885 15
    endloop
  endfacet
  facet normal 0 0 1
    outer loop
      vertex -12.7896 -5.69431 15
      vertex -13.6941 -2.91076 15
      vertex -14.6 -1.4 15
    endloop
  endfacet
  facet normal 0 0 1
    outer loop
      vertex -1.4 -17.4 15
      vertex -1.4 -14.6 15
      vertex -4.32624 -13.3148 15
    endloop
  endfacet
  facet normal 0 0 1
    outer loop
      vertex 14.6 -1.4 15
      vertex 13.6941 -2.91076 15
      vertex 17.6067 -3.74241 15
    endloop
  endfacet
  facet normal 0 0 1
    outer loop
      vertex -1.4634 -13.9233 15
      vertex -4.32624 -13.3148 15
      vertex -1.4 -14.6 15
    endloop
  endfacet
  facet normal 0 0 1
    outer loop
      vertex 12.7896 5.69431 15
      vertex 13.6941 2.91076 15
      vertex 17.6067 3.74241 15
    endloop
  endfacet
  facet normal 0 0 1
    outer loop
      vertex -12.7896 5.69431 15
      vertex -11.3262 8.22899 15
      vertex -17.6067 3.74241 15
    endloop
  endfacet
  facet normal 0 0 1
    outer loop
      vertex 13.6941 2.91076 15
      vertex 14 0 15
      vertex 14.6 1.4 15
    endloop
  endfacet
  facet normal 0 0 1
    outer loop
      vertex -1.4 14.6 15
      vertex -1.4 17.4 15
      vertex -4.32624 13.3148 15
    endloop
  endfacet
  facet normal 0 0 1
    outer loop
      vertex -5.56231 17.119 15
      vertex -17.6067 3.74241 15
      vertex -1.88151 17.9014 15
    endloop
  endfacet
  facet normal 0 0 1
    outer loop
      vertex -9 15.5885 15
      vertex -17.6067 3.74241 15
      vertex -5.56231 17.119 15
    endloop
  endfacet
  facet normal 0 0 1
    outer loop
      vertex -12.0444 13.3766 15
      vertex -17.6067 3.74241 15
      vertex -9 15.5885 15
    endloop
  endfacet
  facet normal 0 0 1
    outer loop
      vertex -14.5623 10.5801 15
      vertex -17.6067 3.74241 15
      vertex -12.0444 13.3766 15
    endloop
  endfacet
  facet normal 0 0 1
    outer loop
      vertex -16.4438 7.32126 15
      vertex -17.6067 3.74241 15
      vertex -14.5623 10.5801 15
    endloop
  endfacet
  facet normal 0 0 1
    outer loop
      vertex -16.4438 -7.32126 15
      vertex -17.4 -1.4 15
      vertex -17.6067 -3.74241 15
    endloop
  endfacet
  facet normal 0 0 1
    outer loop
      vertex -17.4 1.4 15
      vertex -17.6067 3.74241 15
      vertex -17.4 -1.4 15
    endloop
  endfacet
  facet normal 0 0 1
    outer loop
      vertex -4.32624 -13.3148 15
      vertex -7 -12.1244 15
      vertex -1.88151 -17.9014 15
    endloop
  endfacet
  facet normal 0 0 1
    outer loop
      vertex -13.6941 2.91076 15
      vertex -12.7896 5.69431 15
      vertex -17.6067 3.74241 15
    endloop
  endfacet
  facet normal 0 0 1
    outer loop
      vertex -9.36783 -10.404 15
      vertex -11.3262 -8.22899 15
      vertex -5.56231 -17.119 15
    endloop
  endfacet
  facet normal 0 0 1
    outer loop
      vertex 12.7896 -5.69431 15
      vertex 11.3262 -8.22899 15
      vertex 16.4438 -7.32126 15
    endloop
  endfacet
  facet normal 0 0 1
    outer loop
      vertex 9.36783 10.404 15
      vertex 11.3262 8.22899 15
      vertex 14.5623 10.5801 15
    endloop
  endfacet
  facet normal 0 0 1
    outer loop
      vertex 1.4634 13.9233 15
      vertex 4.32624 13.3148 15
      vertex 9 15.5885 15
    endloop
  endfacet
  facet normal 0 0 1
    outer loop
      vertex -1.4634 13.9233 15
      vertex 1.4634 13.9233 15
      vertex 1.4 14.6 15
    endloop
  endfacet
  facet normal 0 0 1
    outer loop
      vertex -1.88151 17.9014 15
      vertex -17.6067 3.74241 15
      vertex -9.36783 10.404 15
    endloop
  endfacet
  facet normal 0 0 1
    outer loop
      vertex -1.88151 17.9014 15
      vertex -9.36783 10.404 15
      vertex -7 12.1244 15
    endloop
  endfacet
  facet normal 0 0 1
    outer loop
      vertex 1.4 17.4 15
      vertex 1.4 14.6 15
      vertex 5.56231 17.119 15
    endloop
  endfacet
  facet normal 0 0 1
    outer loop
      vertex -4.32624 13.3148 15
      vertex -1.4 17.4 15
      vertex -7 12.1244 15
    endloop
  endfacet
  facet normal 0 0 1
    outer loop
      vertex 5.56231 17.119 15
      vertex 1.4634 13.9233 15
      vertex 9 15.5885 15
    endloop
  endfacet
  facet normal 0 0 1
    outer loop
      vertex -1.4 17.4 15
      vertex 1.4 17.4 15
      vertex 1.88151 17.9014 15
    endloop
  endfacet
  facet normal 0 0 1
    outer loop
      vertex 9 15.5885 15
      vertex 4.32624 13.3148 15
      vertex 12.0444 13.3766 15
    endloop
  endfacet
  facet normal 0 0 1
    outer loop
      vertex 4.32624 13.3148 15
      vertex 7 12.1244 15
      vertex 12.0444 13.3766 15
    endloop
  endfacet
  facet normal 0 0 1
    outer loop
      vertex 12.0444 13.3766 15
      vertex 9.36783 10.404 15
      vertex 14.5623 10.5801 15
    endloop
  endfacet
  facet normal 0 0 1
    outer loop
      vertex 14.5623 10.5801 15
      vertex 11.3262 8.22899 15
      vertex 16.4438 7.32126 15
    endloop
  endfacet
  facet normal 0 0 1
    outer loop
      vertex 7 12.1244 15
      vertex 9.36783 10.404 15
      vertex 12.0444 13.3766 15
    endloop
  endfacet
  facet normal 0 0 1
    outer loop
      vertex 16.4438 7.32126 15
      vertex 12.7896 5.69431 15
      vertex 17.6067 3.74241 15
    endloop
  endfacet
  facet normal 0 0 1
    outer loop
      vertex 17.6067 -3.74241 15
      vertex 13.6941 -2.91076 15
      vertex 16.4438 -7.32126 15
    endloop
  endfacet
  facet normal 0 0 1
    outer loop
      vertex 11.3262 8.22899 15
      vertex 12.7896 5.69431 15
      vertex 16.4438 7.32126 15
    endloop
  endfacet
  facet normal 0 0 1
    outer loop
      vertex 13.6941 -2.91076 15
      vertex 12.7896 -5.69431 15
      vertex 16.4438 -7.32126 15
    endloop
  endfacet
  facet normal 0 0 1
    outer loop
      vertex 16.4438 -7.32126 15
      vertex 11.3262 -8.22899 15
      vertex 14.5623 -10.5801 15
    endloop
  endfacet
  facet normal 0 0 1
    outer loop
      vertex 14.5623 -10.5801 15
      vertex 9.36783 -10.404 15
      vertex 12.0444 -13.3766 15
    endloop
  endfacet
  facet normal 0 0 1
    outer loop
      vertex 12.0444 -13.3766 15
      vertex 7 -12.1244 15
      vertex 9 -15.5885 15
    endloop
  endfacet
  facet normal 0 0 1
    outer loop
      vertex 14 0 15
      vertex 13.6941 -2.91076 15
      vertex 14.6 -1.4 15
    endloop
  endfacet
  facet normal 0 0 1
    outer loop
      vertex 9 -15.5885 15
      vertex 4.32624 -13.3148 15
      vertex 5.56231 -17.119 15
    endloop
  endfacet
  facet normal 0 0 1
    outer loop
      vertex 5.56231 -17.119 15
      vertex 1.4634 -13.9233 15
      vertex 1.88151 -17.9014 15
    endloop
  endfacet
  facet normal 0 0 1
    outer loop
      vertex -1.4 -17.4 15
      vertex -4.32624 -13.3148 15
      vertex -1.88151 -17.9014 15
    endloop
  endfacet
  facet normal 0 0 1
    outer loop
      vertex -1.88151 -17.9014 15
      vertex -7 -12.1244 15
      vertex -5.56231 -17.119 15
    endloop
  endfacet
  facet normal 0 0 1
    outer loop
      vertex -7 -12.1244 15
      vertex -9.36783 -10.404 15
      vertex -5.56231 -17.119 15
    endloop
  endfacet
  facet normal 0 0 1
    outer loop
      vertex -5.56231 -17.119 15
      vertex -11.3262 -8.22899 15
      vertex -9 -15.5885 15
    endloop
  endfacet
  facet normal 0 0 1
    outer loop
      vertex -11.3262 -8.22899 15
      vertex -12.7896 -5.69431 15
      vertex -9 -15.5885 15
    endloop
  endfacet
  facet normal 0 0 1
    outer loop
      vertex -14.6 1.4 15
      vertex -14.6 -1.4 15
      vertex -14 0 15
    endloop
  endfacet
  facet normal 0 0 1
    outer loop
      vertex 1.88151 -17.9014 15
      vertex -1.4 -17.4 15
      vertex -1.88151 -17.9014 15
    endloop
  endfacet
  facet normal 0 0 1
    outer loop
      vertex 1.4 -14.6 15
      vertex 1.4 -17.4 15
      vertex 1.88151 -17.9014 15
    endloop
  endfacet
  facet normal 0 0 1
    outer loop
      vertex 9.36783 -10.404 15
      vertex 7 -12.1244 15
      vertex 12.0444 -13.3766 15
    endloop
  endfacet
  facet normal 0 0 1
    outer loop
      vertex 1.4634 -13.9233 15
      vertex 1.4 -14.6 15
      vertex 1.88151 -17.9014 15
    endloop
  endfacet
  facet normal 0 0 1
    outer loop
      vertex 1.4634 -13.9233 15
      vertex -1.4634 -13.9233 15
      vertex 1.4 -14.6 15
    endloop
  endfacet
  facet normal 0 0 1
    outer loop
      vertex -1.4 -14.6 15
      vertex 1.4 -14.6 15
      vertex -1.4634 -13.9233 15
    endloop
  endfacet
  facet normal 0 0 1
    outer loop
      vertex 17.4 -1.4 15
      vertex 14.6 -1.4 15
      vertex 17.6067 -3.74241 15
    endloop
  endfacet
  facet normal 0 0 1
    outer loop
      vertex 14.6 -1.4 15
      vertex 14.6 1.4 15
      vertex 14 0 15
    endloop
  endfacet
  facet normal 0 0 1
    outer loop
      vertex -1.88151 17.9014 15
      vertex -1.4 17.4 15
      vertex 1.88151 17.9014 15
    endloop
  endfacet
  facet normal 0 0 1
    outer loop
      vertex -1.88151 17.9014 15
      vertex -7 12.1244 15
      vertex -1.4 17.4 15
    endloop
  endfacet
  facet normal 0 0 1
    outer loop
      vertex 1.88151 17.9014 15
      vertex 1.4 17.4 15
      vertex 5.56231 17.119 15
    endloop
  endfacet
  facet normal 0 0 1
    outer loop
      vertex 5.56231 17.119 15
      vertex 1.4 14.6 15
      vertex 1.4634 13.9233 15
    endloop
  endfacet
  facet normal 0 0 1
    outer loop
      vertex -11.3262 8.22899 15
      vertex -9.36783 10.404 15
      vertex -17.6067 3.74241 15
    endloop
  endfacet
  facet normal 0 0 1
    outer loop
      vertex 4.32624 -13.3148 15
      vertex 1.4634 -13.9233 15
      vertex 5.56231 -17.119 15
    endloop
  endfacet
  facet normal 0 0 1
    outer loop
      vertex 17.4 1.4 15
      vertex 17.4 -1.4 15
      vertex 18 0 15
    endloop
  endfacet
  facet normal 0 0 1
    outer loop
      vertex 17.6067 3.74241 15
      vertex 17.4 1.4 15
      vertex 18 0 15
    endloop
  endfacet
  facet normal 0 0 1
    outer loop
      vertex 17.6067 3.74241 15
      vertex 13.6941 2.91076 15
      vertex 17.4 1.4 15
    endloop
  endfacet
  facet normal 0 0 1
    outer loop
      vertex 18 0 15
      vertex 17.4 -1.4 15
      vertex 17.6067 -3.74241 15
    endloop
  endfacet
  facet normal 0 0 1
    outer loop
      vertex 14.6 1.4 15
      vertex 17.4 1.4 15
      vertex 13.6941 2.91076 15
    endloop
  endfacet
  facet normal 0 0 1
    outer loop
      vertex -13.6941 -2.91076 15
      vertex -14 0 15
      vertex -14.6 -1.4 15
    endloop
  endfacet
  facet normal 0 0 1
    outer loop
      vertex 11.3262 -8.22899 15
      vertex 9.36783 -10.404 15
      vertex 14.5623 -10.5801 15
    endloop
  endfacet
  facet normal 0 0 1
    outer loop
      vertex -14.6 -1.4 15
      vertex -9 -15.5885 15
      vertex -12.7896 -5.69431 15
    endloop
  endfacet
  facet normal 0 0 1
    outer loop
      vertex -14.6 -1.4 15
      vertex -12.0444 -13.3766 15
      vertex -9 -15.5885 15
    endloop
  endfacet
  facet normal 0 0 1
    outer loop
      vertex -14.6 -1.4 15
      vertex -14.5623 -10.5801 15
      vertex -12.0444 -13.3766 15
    endloop
  endfacet
  facet normal 0 0 1
    outer loop
      vertex -14.6 -1.4 15
      vertex -16.4438 -7.32126 15
      vertex -14.5623 -10.5801 15
    endloop
  endfacet
  facet normal 0 0 1
    outer loop
      vertex -14.6 -1.4 15
      vertex -17.4 -1.4 15
      vertex -16.4438 -7.32126 15
    endloop
  endfacet
  facet normal 0 0 1
    outer loop
      vertex 1.4 14.6 15
      vertex -1.4 14.6 15
      vertex -4.32624 13.3148 15
    endloop
  endfacet
  facet normal 0 0 1
    outer loop
      vertex 1.4 14.6 15
      vertex -4.32624 13.3148 15
      vertex -1.4634 13.9233 15
    endloop
  endfacet
  facet normal 0 0 1
    outer loop
      vertex -14.6 1.4 15
      vertex -13.6941 2.91076 15
      vertex -17.6067 3.74241 15
    endloop
  endfacet
  facet normal 0 0 1
    outer loop
      vertex -14 0 15
      vertex -13.6941 2.91076 15
      vertex -14.6 1.4 15
    endloop
  endfacet
  facet normal -1 0 0
    outer loop
      vertex -17.4 -1.4 15
      vertex -17.4 -1.4 18
      vertex -17.4 1.4 15
    endloop
  endfacet
  facet normal -1 0 0
    outer loop
      vertex -17.4 1.4 15
      vertex -17.4 -1.4 18
      vertex -17.4 1.4 18
    endloop
  endfacet
  facet normal 0 -1 0
    outer loop
      vertex -17.4 -1.4 18
      vertex -17.4 -1.4 15
      vertex -14.6 -1.4 15
    endloop
  endfacet
  facet normal 0 -1 0
    outer loop
      vertex -14.6 -1.4 18
      vertex -17.4 -1.4 18
      vertex -14.6 -1.4 15
    endloop
  endfacet
  facet normal 1 0 0
    outer loop
      vertex -14.6 -1.4 18
      vertex -14.6 -1.4 15
      vertex -14.6 1.4 15
    endloop
  endfacet
  facet normal 1 0 0
    outer loop
      vertex -14.6 1.4 18
      vertex -14.6 -1.4 18
      vertex -14.6 1.4 15
    endloop
  endfacet
  facet normal 0 1 0
    outer loop
      vertex -17.4 1.4 15
      vertex -17.4 1.4 18
      vertex -14.6 1.4 15
    endloop
  endfacet
  facet normal 0 1 0
    outer loop
      vertex -14.6 1.4 15
      vertex -17.4 1.4 18
      vertex -14.6 1.4 18
    endloop
  endfacet
  facet normal -1 0 0
    outer loop
      vertex -1.4 -17.4 15
      vertex -1.4 -17.4 18
      vertex -1.4 -14.6 15
    endloop
  endfacet
  facet normal -1 0 0
    outer loop
      vertex -1.4 -14.6 15
      vertex -1.4 -17.4 18
      vertex -1.4 -14.6 18
    endloop
  endfacet
  facet normal 0 -1 0
    outer loop
      vertex -1.4 -17.4 18
      vertex -1.4 -17.4 15
      vertex 1.4 -17.4 15
    endloop
  endfacet
  facet normal 0 -1 0
    outer loop
      vertex 1.4 -17.4 18
      vertex -1.4 -17.4 18
      vertex 1.4 -17.4 15
    endloop
  endfacet
  facet normal 1 0 0
    outer loop
      vertex 1.4 -17.4 18
      vertex 1.4 -17.4 15
      vertex 1.4 -14.6 15
    endloop
  endfacet
  facet normal 1 0 0
    outer loop
      vertex 1.4 -14.6 18
      vertex 1.4 -17.4 18
      vertex 1.4 -14.6 15
    endloop
  endfacet
  facet normal 0 1 0
    outer loop
      vertex -1.4 -14.6 15
      vertex -1.4 -14.6 18
      vertex 1.4 -14.6 15
    endloop
  endfacet
  facet normal 0 1 0
    outer loop
      vertex 1.4 -14.6 15
      vertex -1.4 -14.6 18
      vertex 1.4 -14.6 18
    endloop
  endfacet
  facet normal -1 0 0
    outer loop
      vertex -1.4 14.6 15
      vertex -1.4 14.6 18
      vertex -1.4 17.4 15
    endloop
  endfacet
  facet normal -1 0 0
    outer loop
      vertex -1.4 17.4 15
      vertex -1.4 14.6 18
      vertex -1.4 17.4 18
    endloop
  endfacet
  facet normal 0 -1 0
    outer loop
      vertex -1.4 14.6 18
      vertex -1.4 14.6 15
      vertex 1.4 14.6 15
    endloop
  endfacet
  facet normal 0 -1 0
    outer loop
      vertex 1.4 14.6 18
      vertex -1.4 14.6 18
      vertex 1.4 14.6 15
    endloop
  endfacet
  facet normal 1 0 0
    outer loop
      vertex 1.4 14.6 18
      vertex 1.4 14.6 15
      vertex 1.4 17.4 15
    endloop
  endfacet
  facet normal 1 0 0
    outer loop
      vertex 1.4 17.4 18
      vertex 1.4 14.6 18
      vertex 1.4 17.4 15
    endloop
  endfacet
  facet normal 0 1 0
    outer loop
      vertex -1.4 17.4 15
      vertex -1.4 17.4 18
      vertex 1.4 17.4 15
    endloop
  endfacet
  facet normal 0 1 0
    outer loop
      vertex 1.4 17.4 15
      vertex -1.4 17.4 18
      vertex 1.4 17.4 18
    endloop
  endfacet
  facet normal -1 0 0
    outer loop
      vertex 14.6 -1.4 15
      vertex 14.6 -1.4 18
      vertex 14.6 1.4 15
    endloop
  endfacet
  facet normal -1 0 0
    outer loop
      vertex 14.6 1.4 15
      vertex 14.6 -1.4 18
      vertex 14.6 1.4 18
    endloop
  endfacet
  facet normal 0 -1 0
    outer loop
      vertex 14.6 -1.4 18
      vertex 14.6 -1.4 15
      vertex 17.4 -1.4 15
    endloop
  endfacet
  facet normal 0 -1 0
    outer loop
      vertex 17.4 -1.4 18
      vertex 14.6 -1.4 18
      vertex 17.4 -1.4 15
    endloop
  endfacet
  facet normal 1 0 0
    outer loop
      vertex 17.4 -1.4 18
      vertex 17.4 -1.4 15
      vertex 17.4 1.4 15
    endloop
  endfacet
  facet normal 1 0 0
    outer loop
      vertex 17.4 1.4 18
      vertex 17.4 -1.4 18
      vertex 17.4 1.4 15
    endloop
  endfacet
  facet normal 0 1 0
    outer loop
      vertex 14.6 1.4 15
      vertex 14.6 1.4 18
      vertex 17.4 1.4 15
    endloop
  endfacet
  facet normal 0 1 0
    outer loop
      vertex 17.4 1.4 15
      vertex 14.6 1.4 18
      vertex 17.4 1.4 18
    endloop
  endfacet
  facet normal 0 0 1
    outer loop
      vertex -17.4 1.4 18
      vertex -17.4 -1.4 18
      vertex -14.6 -1.4 18
    endloop
  endfacet
  facet normal 0 0 1
    outer loop
      vertex -14.6 1.4 18
      vertex -17.4 1.4 18
      vertex -14.6 -1.4 18
    endloop
  endfacet
  facet normal 0 0 1
    outer loop
      vertex -1.4 -14.6 18
      vertex -1.4 -17.4 18
      vertex 1.4 -17.4 18
    endloop
  endfacet
  facet normal 0 0 1
    outer loop
      vertex 1.4 -14.6 18
      vertex -1.4 -14.6 18
      vertex 1.4 -17.4 18
    endloop
  endfacet
  facet normal 0 0 1
    outer loop
      vertex -1.4 17.4 18
      vertex -1.4 14.6 18
      vertex 1.4 14.6 18
    endloop
  endfacet
  facet normal 0 0 1
    outer loop
      vertex 1.4 17.4 18
      vertex -1.4 17.4 18
      vertex 1.4 14.6 18
    endloop
  endfacet
  facet normal 0 0 1
    outer loop
      vertex 14.6 1.4 18
      vertex 14.6 -1.4 18
      vertex 17.4 -1.4 18
    endloop
  endfacet
  facet normal 0 0 1
    outer loop
      vertex 17.4 1.4 18
      vertex 14.6 1.4 18
      vertex 17.4 -1.4 18
    endloop
  endfacet
endsolid OpenSCAD_Model
