solid OpenSCAD_Model
  facet normal -1 0 0
    outer loop
      vertex -20 -20.5 15
      vertex -20 -20.5 25
      vertex -20 19.5 15
    endloop
  endfacet
  facet normal -1 0 0
    outer loop
      vertex -20 19.5 15
      vertex -20 -20.5 25
      vertex -20 19.5 25
    endloop
  endfacet
  facet normal 0 -1 0
    outer loop
      vertex -14 -20.5 23
      vertex -20 -20.5 15
      vertex 20 -20.5 15
    endloop
  endfacet
  facet normal 0 -1 0
    outer loop
      vertex -14 -20.5 23
      vertex -13 -20.5 25
      vertex -20 -20.5 25
    endloop
  endfacet
  facet normal 0 -1 0
    outer loop
      vertex 20 -20.5 25
      vertex 13 -20.5 25
      vertex 20 -20.5 15
    endloop
  endfacet
  facet normal 0 -1 0
    outer loop
      vertex 13 -20.5 25
      vertex 14 -20.5 23
      vertex 20 -20.5 15
    endloop
  endfacet
  facet normal 0 -1 0
    outer loop
      vertex -20 -20.5 25
      vertex -20 -20.5 15
      vertex -14 -20.5 23
    endloop
  endfacet
  facet normal 0 -1 0
    outer loop
      vertex 14 -20.5 23
      vertex -14 -20.5 23
      vertex 20 -20.5 15
    endloop
  endfacet
  facet normal 0 0 -1
    outer loop
      vertex 4.5 -4.5 15
      vertex 20 -20.5 15
      vertex -4.5 -4.5 15
    endloop
  endfacet
  facet normal 0 0 -1
    outer loop
      vertex -1.6 17.6 15
      vertex -20 19.5 15
      vertex 20 19.5 15
    endloop
  endfacet
  facet normal 0 0 -1
    outer loop
      vertex -20 -20.5 15
      vertex -20 19.5 15
      vertex -17.6 1.6 15
    endloop
  endfacet
  facet normal 0 0 -1
    outer loop
      vertex -20 -20.5 15
      vertex -17.6 1.6 15
      vertex -17.6 -1.6 15
    endloop
  endfacet
  facet normal 0 0 -1
    outer loop
      vertex 1.6 -14.4 15
      vertex -17.6 -1.6 15
      vertex 20 -20.5 15
    endloop
  endfacet
  facet normal 0 0 -1
    outer loop
      vertex -17.6 -1.6 15
      vertex -14.4 -1.6 15
      vertex 20 -20.5 15
    endloop
  endfacet
  facet normal 0 0 -1
    outer loop
      vertex -17.6 1.6 15
      vertex -20 19.5 15
      vertex -14.4 1.6 15
    endloop
  endfacet
  facet normal 0 0 -1
    outer loop
      vertex -4.5 -4.5 15
      vertex -20 19.5 15
      vertex -4.5 4.5 15
    endloop
  endfacet
  facet normal 0 0 -1
    outer loop
      vertex 4.5 4.5 15
      vertex -4.5 4.5 15
      vertex 20 19.5 15
    endloop
  endfacet
  facet normal 0 0 -1
    outer loop
      vertex -14.4 1.6 15
      vertex -20 19.5 15
      vertex -4.5 -4.5 15
    endloop
  endfacet
  facet normal 0 0 -1
    outer loop
      vertex -14.4 1.6 15
      vertex -4.5 -4.5 15
      vertex 20 -20.5 15
    endloop
  endfacet
  facet normal 0 0 -1
    outer loop
      vertex 1.6 -14.4 15
      vertex 20 -20.5 15
      vertex 1.6 -17.6 15
    endloop
  endfacet
  facet normal 0 0 -1
    outer loop
      vertex 14.4 1.6 15
      vertex 4.5 -4.5 15
      vertex 20 19.5 15
    endloop
  endfacet
  facet normal 0 0 -1
    outer loop
      vertex 4.5 -4.5 15
      vertex 4.5 4.5 15
      vertex 20 19.5 15
    endloop
  endfacet
  facet normal 0 0 -1
    outer loop
      vertex -20 -20.5 15
      vertex -17.6 -1.6 15
      vertex -1.6 -14.4 15
    endloop
  endfacet
  facet normal 0 0 -1
    outer loop
      vertex -20 -20.5 15
      vertex -1.6 -14.4 15
      vertex -1.6 -17.6 15
    endloop
  endfacet
  facet normal 0 0 -1
    outer loop
      vertex -20 -20.5 15
      vertex -1.6 -17.6 15
      vertex 20 -20.5 15
    endloop
  endfacet
  facet normal 0 0 -1
    outer loop
      vertex -1.6 -17.6 15
      vertex 1.6 -17.6 15
      vertex 20 -20.5 15
    endloop
  endfacet
  facet normal 0 0 -1
    outer loop
      vertex -1.6 -14.4 15
      vertex -17.6 -1.6 15
      vertex 1.6 -14.4 15
    endloop
  endfacet
  facet normal 0 0 -1
    outer loop
      vertex 1.6 17.6 15
      vertex 20 19.5 15
      vertex 1.6 14.4 15
    endloop
  endfacet
  facet normal 0 0 -1
    outer loop
      vertex -4.5 4.5 15
      vertex -20 19.5 15
      vertex -1.6 17.6 15
    endloop
  endfacet
  facet normal 0 0 -1
    outer loop
      vertex 1.6 17.6 15
      vertex -1.6 17.6 15
      vertex 20 19.5 15
    endloop
  endfacet
  facet normal 0 0 -1
    outer loop
      vertex -4.5 4.5 15
      vertex -1.6 17.6 15
      vertex -1.6 14.4 15
    endloop
  endfacet
  facet normal 0 0 -1
    outer loop
      vertex -4.5 4.5 15
      vertex -1.6 14.4 15
      vertex 1.6 14.4 15
    endloop
  endfacet
  facet normal 0 0 -1
    outer loop
      vertex -4.5 4.5 15
      vertex 1.6 14.4 15
      vertex 20 19.5 15
    endloop
  endfacet
  facet normal 0 0 -1
    outer loop
      vertex 17.6 -1.6 15
      vertex 20 -20.5 15
      vertex 14.4 -1.6 15
    endloop
  endfacet
  facet normal 0 0 -1
    outer loop
      vertex 14.4 -1.6 15
      vertex 4.5 -4.5 15
      vertex 14.4 1.6 15
    endloop
  endfacet
  facet normal 0 0 -1
    outer loop
      vertex 17.6 1.6 15
      vertex 14.4 1.6 15
      vertex 20 19.5 15
    endloop
  endfacet
  facet normal 0 0 -1
    outer loop
      vertex 20 -20.5 15
      vertex 4.5 -4.5 15
      vertex 14.4 -1.6 15
    endloop
  endfacet
  facet normal 0 0 -1
    outer loop
      vertex 20 -20.5 15
      vertex 17.6 -1.6 15
      vertex 20 19.5 15
    endloop
  endfacet
  facet normal 0 0 -1
    outer loop
      vertex 17.6 -1.6 15
      vertex 17.6 1.6 15
      vertex 20 19.5 15
    endloop
  endfacet
  facet normal 0 0 -1
    outer loop
      vertex -14.4 1.6 15
      vertex 20 -20.5 15
      vertex -14.4 -1.6 15
    endloop
  endfacet
  facet normal 0 1 0
    outer loop
      vertex 8.5 19.5 21
      vertex 20 19.5 15
      vertex -8.5 19.5 21
    endloop
  endfacet
  facet normal 0 1 0
    outer loop
      vertex -20 19.5 15
      vertex -20 19.5 25
      vertex -8.5 19.5 21
    endloop
  endfacet
  facet normal 0 1 0
    outer loop
      vertex -20 19.5 15
      vertex -8.5 19.5 21
      vertex 20 19.5 15
    endloop
  endfacet
  facet normal 0 1 0
    outer loop
      vertex 20 19.5 15
      vertex 8.5 19.5 21
      vertex 8.5 19.5 25
    endloop
  endfacet
  facet normal 0 1 0
    outer loop
      vertex 20 19.5 15
      vertex 8.5 19.5 25
      vertex 20 19.5 25
    endloop
  endfacet
  facet normal 0 1 0
    outer loop
      vertex -8.5 19.5 21
      vertex -20 19.5 25
      vertex -8.5 19.5 25
    endloop
  endfacet
  facet normal 0 0 1
    outer loop
      vertex -20 19.5 25
      vertex -20 -20.5 25
      vertex -13 -20.5 25
    endloop
  endfacet
  facet normal 0 0 1
    outer loop
      vertex -8.5 9.5 25
      vertex -20 19.5 25
      vertex -13 9.5 25
    endloop
  endfacet
  facet normal 0 0 1
    outer loop
      vertex -13 9.5 25
      vertex -20 19.5 25
      vertex -13 -20.5 25
    endloop
  endfacet
  facet normal 0 0 1
    outer loop
      vertex -8.5 19.5 25
      vertex -20 19.5 25
      vertex -8.5 9.5 25
    endloop
  endfacet
  facet normal 0.894427 0 -0.447214
    outer loop
      vertex -14 9.5 23
      vertex -13 9.5 25
      vertex -13 -20.5 25
    endloop
  endfacet
  facet normal 0.894427 0 -0.447214
    outer loop
      vertex -14 -20.5 23
      vertex -14 9.5 23
      vertex -13 -20.5 25
    endloop
  endfacet
  facet normal 0 0 1
    outer loop
      vertex -13 -15.5 23
      vertex -14 -20.5 23
      vertex 14 -20.5 23
    endloop
  endfacet
  facet normal 0 0 1
    outer loop
      vertex -13 -15.5 23
      vertex -13 9.5 23
      vertex -14 9.5 23
    endloop
  endfacet
  facet normal 0 0 1
    outer loop
      vertex 14 9.5 23
      vertex 13 9.5 23
      vertex 14 -20.5 23
    endloop
  endfacet
  facet normal 0 0 1
    outer loop
      vertex 13 9.5 23
      vertex 13 -15.5 23
      vertex 14 -20.5 23
    endloop
  endfacet
  facet normal 0 0 1
    outer loop
      vertex -14 9.5 23
      vertex -14 -20.5 23
      vertex -13 -15.5 23
    endloop
  endfacet
  facet normal 0 0 1
    outer loop
      vertex 13 -15.5 23
      vertex -13 -15.5 23
      vertex 14 -20.5 23
    endloop
  endfacet
  facet normal -0.894427 0 -0.447214
    outer loop
      vertex 13 -20.5 25
      vertex 13 9.5 25
      vertex 14 -20.5 23
    endloop
  endfacet
  facet normal -0.894427 0 -0.447214
    outer loop
      vertex 14 -20.5 23
      vertex 13 9.5 25
      vertex 14 9.5 23
    endloop
  endfacet
  facet normal 0 0 1
    outer loop
      vertex 8.5 19.5 25
      vertex 8.5 9.5 25
      vertex 13 9.5 25
    endloop
  endfacet
  facet normal 0 0 1
    outer loop
      vertex 20 19.5 25
      vertex 8.5 19.5 25
      vertex 13 9.5 25
    endloop
  endfacet
  facet normal 0 0 1
    outer loop
      vertex 13 -20.5 25
      vertex 20 -20.5 25
      vertex 13 9.5 25
    endloop
  endfacet
  facet normal 0 0 1
    outer loop
      vertex 20 -20.5 25
      vertex 20 19.5 25
      vertex 13 9.5 25
    endloop
  endfacet
  facet normal 1 0 0
    outer loop
      vertex 20 -20.5 25
      vertex 20 -20.5 15
      vertex 20 19.5 15
    endloop
  endfacet
  facet normal 1 0 0
    outer loop
      vertex 20 19.5 25
      vertex 20 -20.5 25
      vertex 20 19.5 15
    endloop
  endfacet
  facet normal 1 0 0
    outer loop
      vertex -17.6 1.6 15
      vertex -17.6 1.6 17
      vertex -17.6 -1.6 17
    endloop
  endfacet
  facet normal 1 0 0
    outer loop
      vertex -17.6 -1.6 15
      vertex -17.6 1.6 15
      vertex -17.6 -1.6 17
    endloop
  endfacet
  facet normal 0 -1 0
    outer loop
      vertex -14.4 1.6 15
      vertex -14.4 1.6 17
      vertex -17.6 1.6 17
    endloop
  endfacet
  facet normal 0 -1 0
    outer loop
      vertex -17.6 1.6 15
      vertex -14.4 1.6 15
      vertex -17.6 1.6 17
    endloop
  endfacet
  facet normal -1 0 0
    outer loop
      vertex -14.4 1.6 17
      vertex -14.4 1.6 15
      vertex -14.4 -1.6 17
    endloop
  endfacet
  facet normal -1 0 0
    outer loop
      vertex -14.4 -1.6 17
      vertex -14.4 1.6 15
      vertex -14.4 -1.6 15
    endloop
  endfacet
  facet normal 0 1 0
    outer loop
      vertex -14.4 -1.6 17
      vertex -14.4 -1.6 15
      vertex -17.6 -1.6 17
    endloop
  endfacet
  facet normal 0 1 0
    outer loop
      vertex -17.6 -1.6 17
      vertex -14.4 -1.6 15
      vertex -17.6 -1.6 15
    endloop
  endfacet
  facet normal 1 0 0
    outer loop
      vertex -4.5 -4.5 18
      vertex -4.5 -4.5 15
      vertex -4.5 4.5 15
    endloop
  endfacet
  facet normal 1 0 0
    outer loop
      vertex -4.5 -15 20
      vertex -4.5 -4.5 18
      vertex -4.5 4.5 20
    endloop
  endfacet
  facet normal 1 0 0
    outer loop
      vertex -4.5 4.5 20
      vertex -4.5 -4.5 18
      vertex -4.5 4.5 15
    endloop
  endfacet
  facet normal 1 0 0
    outer loop
      vertex -4.5 -15 18
      vertex -4.5 -4.5 18
      vertex -4.5 -15 20
    endloop
  endfacet
  facet normal 0 -1 0
    outer loop
      vertex 4.5 4.5 15
      vertex 4.5 4.5 20
      vertex -4.5 4.5 20
    endloop
  endfacet
  facet normal 0 -1 0
    outer loop
      vertex -4.5 4.5 15
      vertex 4.5 4.5 15
      vertex -4.5 4.5 20
    endloop
  endfacet
  facet normal -1 0 0
    outer loop
      vertex 4.5 -15 18
      vertex 4.5 -15 20
      vertex 4.5 -4.5 18
    endloop
  endfacet
  facet normal -1 0 0
    outer loop
      vertex 4.5 4.5 20
      vertex 4.5 4.5 15
      vertex 4.5 -4.5 18
    endloop
  endfacet
  facet normal -1 0 0
    outer loop
      vertex 4.5 4.5 20
      vertex 4.5 -4.5 18
      vertex 4.5 -15 20
    endloop
  endfacet
  facet normal -1 0 0
    outer loop
      vertex 4.5 -4.5 18
      vertex 4.5 4.5 15
      vertex 4.5 -4.5 15
    endloop
  endfacet
  facet normal 0 1 0
    outer loop
      vertex 4.5 -4.5 18
      vertex 4.5 -4.5 15
      vertex -4.5 -4.5 18
    endloop
  endfacet
  facet normal 0 1 0
    outer loop
      vertex -4.5 -4.5 18
      vertex 4.5 -4.5 15
      vertex -4.5 -4.5 15
    endloop
  endfacet
  facet normal 1 0 0
    outer loop
      vertex -1.6 -14.4 15
      vertex -1.6 -14.4 17
      vertex -1.6 -17.6 17
    endloop
  endfacet
  facet normal 1 0 0
    outer loop
      vertex -1.6 -17.6 15
      vertex -1.6 -14.4 15
      vertex -1.6 -17.6 17
    endloop
  endfacet
  facet normal 0 -1 0
    outer loop
      vertex 1.6 -14.4 15
      vertex 1.6 -14.4 17
      vertex -1.6 -14.4 17
    endloop
  endfacet
  facet normal 0 -1 0
    outer loop
      vertex -1.6 -14.4 15
      vertex 1.6 -14.4 15
      vertex -1.6 -14.4 17
    endloop
  endfacet
  facet normal -1 0 0
    outer loop
      vertex 1.6 -14.4 17
      vertex 1.6 -14.4 15
      vertex 1.6 -17.6 17
    endloop
  endfacet
  facet normal -1 0 0
    outer loop
      vertex 1.6 -17.6 17
      vertex 1.6 -14.4 15
      vertex 1.6 -17.6 15
    endloop
  endfacet
  facet normal 0 1 0
    outer loop
      vertex 1.6 -17.6 17
      vertex 1.6 -17.6 15
      vertex -1.6 -17.6 17
    endloop
  endfacet
  facet normal 0 1 0
    outer loop
      vertex -1.6 -17.6 17
      vertex 1.6 -17.6 15
      vertex -1.6 -17.6 15
    endloop
  endfacet
  facet normal 1 0 0
    outer loop
      vertex -1.6 17.6 15
      vertex -1.6 17.6 17
      vertex -1.6 14.4 17
    endloop
  endfacet
  facet normal 1 0 0
    outer loop
      vertex -1.6 14.4 15
      vertex -1.6 17.6 15
      vertex -1.6 14.4 17
    endloop
  endfacet
  facet normal 0 -1 0
    outer loop
      vertex 1.6 17.6 15
      vertex 1.6 17.6 17
      vertex -1.6 17.6 17
    endloop
  endfacet
  facet normal 0 -1 0
    outer loop
      vertex -1.6 17.6 15
      vertex 1.6 17.6 15
      vertex -1.6 17.6 17
    endloop
  endfacet
  facet normal -1 0 0
    outer loop
      vertex 1.6 17.6 17
      vertex 1.6 17.6 15
      vertex 1.6 14.4 17
    endloop
  endfacet
  facet normal -1 0 0
    outer loop
      vertex 1.6 14.4 17
      vertex 1.6 17.6 15
      vertex 1.6 14.4 15
    endloop
  endfacet
  facet normal 0 1 0
    outer loop
      vertex 1.6 14.4 17
      vertex 1.6 14.4 15
      vertex -1.6 14.4 17
    endloop
  endfacet
  facet normal 0 1 0
    outer loop
      vertex -1.6 14.4 17
      vertex 1.6 14.4 15
      vertex -1.6 14.4 15
    endloop
  endfacet
  facet normal 1 0 0
    outer loop
      vertex 14.4 1.6 15
      vertex 14.4 1.6 17
      vertex 14.4 -1.6 17
    endloop
  endfacet
  facet normal 1 0 0
    outer loop
      vertex 14.4 -1.6 15
      vertex 14.4 1.6 15
      vertex 14.4 -1.6 17
    endloop
  endfacet
  facet normal 0 -1 0
    outer loop
      vertex 17.6 1.6 15
      vertex 17.6 1.6 17
      vertex 14.4 1.6 17
    endloop
  endfacet
  facet normal 0 -1 0
    outer loop
      vertex 14.4 1.6 15
      vertex 17.6 1.6 15
      vertex 14.4 1.6 17
    endloop
  endfacet
  facet normal -1 0 0
    outer loop
      vertex 17.6 1.6 17
      vertex 17.6 1.6 15
      vertex 17.6 -1.6 17
    endloop
  endfacet
  facet normal -1 0 0
    outer loop
      vertex 17.6 -1.6 17
      vertex 17.6 1.6 15
      vertex 17.6 -1.6 15
    endloop
  endfacet
  facet normal 0 1 0
    outer loop
      vertex 17.6 -1.6 17
      vertex 17.6 -1.6 15
      vertex 14.4 -1.6 17
    endloop
  endfacet
  facet normal 0 1 0
    outer loop
      vertex 14.4 -1.6 17
      vertex 17.6 -1.6 15
      vertex 14.4 -1.6 15
    endloop
  endfacet
  facet normal -1 0 0
    outer loop
      vertex 8.5 19.5 25
      vertex 8.5 19.5 21
      vertex 8.5 9.5 25
    endloop
  endfacet
  facet normal -1 0 0
    outer loop
      vertex 8.5 9.5 25
      vertex 8.5 19.5 21
      vertex 8.5 9.5 21
    endloop
  endfacet
  facet normal 0 0 1
    outer loop
      vertex 8.5 9.5 21
      vertex 8.5 19.5 21
      vertex -8.5 19.5 21
    endloop
  endfacet
  facet normal 0 0 1
    outer loop
      vertex -8.5 9.5 21
      vertex 8.5 9.5 21
      vertex -8.5 19.5 21
    endloop
  endfacet
  facet normal 1 0 0
    outer loop
      vertex -8.5 19.5 21
      vertex -8.5 19.5 25
      vertex -8.5 9.5 25
    endloop
  endfacet
  facet normal 1 0 0
    outer loop
      vertex -8.5 9.5 21
      vertex -8.5 19.5 21
      vertex -8.5 9.5 25
    endloop
  endfacet
  facet normal 0 -1 0
    outer loop
      vertex -8.5 9.5 21
      vertex -13 9.5 20
      vertex 13 9.5 20
    endloop
  endfacet
  facet normal 0 -1 0
    outer loop
      vertex 8.5 9.5 21
      vertex -8.5 9.5 21
      vertex 13 9.5 20
    endloop
  endfacet
  facet normal 0 -1 0
    outer loop
      vertex 13 9.5 25
      vertex 13 9.5 23
      vertex 14 9.5 23
    endloop
  endfacet
  facet normal 0 -1 0
    outer loop
      vertex -8.5 9.5 21
      vertex -8.5 9.5 25
      vertex -13 9.5 23
    endloop
  endfacet
  facet normal 0 -1 0
    outer loop
      vertex 13 9.5 23
      vertex 8.5 9.5 21
      vertex 13 9.5 20
    endloop
  endfacet
  facet normal 0 -1 0
    outer loop
      vertex -13 9.5 23
      vertex -13 9.5 20
      vertex -8.5 9.5 21
    endloop
  endfacet
  facet normal 0 -1 0
    outer loop
      vertex -13 9.5 25
      vertex -13 9.5 23
      vertex -8.5 9.5 25
    endloop
  endfacet
  facet normal 0 -1 0
    outer loop
      vertex -14 9.5 23
      vertex -13 9.5 23
      vertex -13 9.5 25
    endloop
  endfacet
  facet normal 0 -1 0
    outer loop
      vertex 8.5 9.5 25
      vertex 13 9.5 23
      vertex 13 9.5 25
    endloop
  endfacet
  facet normal 0 -1 0
    outer loop
      vertex 8.5 9.5 25
      vertex 8.5 9.5 21
      vertex 13 9.5 23
    endloop
  endfacet
  facet normal 1 0 0
    outer loop
      vertex -13 9.5 20
      vertex -13 9.5 23
      vertex -13 -15.5 23
    endloop
  endfacet
  facet normal 1 0 0
    outer loop
      vertex -13 -15.5 20
      vertex -13 9.5 20
      vertex -13 -15.5 23
    endloop
  endfacet
  facet normal 0 1 0
    outer loop
      vertex 13 -15.5 23
      vertex 13 -15.5 20
      vertex -13 -15.5 23
    endloop
  endfacet
  facet normal 0 1 0
    outer loop
      vertex -13 -15.5 23
      vertex 13 -15.5 20
      vertex -13 -15.5 20
    endloop
  endfacet
  facet normal -1 0 0
    outer loop
      vertex 13 9.5 23
      vertex 13 9.5 20
      vertex 13 -15.5 23
    endloop
  endfacet
  facet normal -1 0 0
    outer loop
      vertex 13 -15.5 23
      vertex 13 9.5 20
      vertex 13 -15.5 20
    endloop
  endfacet
  facet normal 0 0 -1
    outer loop
      vertex -14.4 1.6 17
      vertex -14.4 -1.6 17
      vertex -17.6 1.6 17
    endloop
  endfacet
  facet normal 0 0 -1
    outer loop
      vertex -17.6 1.6 17
      vertex -14.4 -1.6 17
      vertex -17.6 -1.6 17
    endloop
  endfacet
  facet normal 0 0 1
    outer loop
      vertex 4.5 -15 18
      vertex 4.5 -4.5 18
      vertex -4.5 -4.5 18
    endloop
  endfacet
  facet normal 0 0 1
    outer loop
      vertex -4.5 -15 18
      vertex 4.5 -15 18
      vertex -4.5 -4.5 18
    endloop
  endfacet
  facet normal 0 1 0
    outer loop
      vertex 4.5 -15 20
      vertex 4.5 -15 18
      vertex -4.5 -15 20
    endloop
  endfacet
  facet normal 0 1 0
    outer loop
      vertex -4.5 -15 20
      vertex 4.5 -15 18
      vertex -4.5 -15 18
    endloop
  endfacet
  facet normal 0 0 1
    outer loop
      vertex -4.5 4.5 20
      vertex 13 9.5 20
      vertex -13 9.5 20
    endloop
  endfacet
  facet normal 0 0 1
    outer loop
      vertex 4.5 4.5 20
      vertex 4.5 -15 20
      vertex 13 -15.5 20
    endloop
  endfacet
  facet normal 0 0 1
    outer loop
      vertex 4.5 4.5 20
      vertex 13 9.5 20
      vertex -4.5 4.5 20
    endloop
  endfacet
  facet normal 0 0 1
    outer loop
      vertex 13 -15.5 20
      vertex 13 9.5 20
      vertex 4.5 4.5 20
    endloop
  endfacet
  facet normal 0 0 1
    outer loop
      vertex -13 -15.5 20
      vertex 13 -15.5 20
      vertex 4.5 -15 20
    endloop
  endfacet
  facet normal 0 0 1
    outer loop
      vertex -13 -15.5 20
      vertex -4.5 -15 20
      vertex -13 9.5 20
    endloop
  endfacet
  facet normal 0 0 1
    outer loop
      vertex -13 -15.5 20
      vertex 4.5 -15 20
      vertex -4.5 -15 20
    endloop
  endfacet
  facet normal 0 0 1
    outer loop
      vertex -4.5 -15 20
      vertex -4.5 4.5 20
      vertex -13 9.5 20
    endloop
  endfacet
  facet normal 0 0 -1
    outer loop
      vertex 1.6 -14.4 17
      vertex 1.6 -17.6 17
      vertex -1.6 -14.4 17
    endloop
  endfacet
  facet normal 0 0 -1
    outer loop
      vertex -1.6 -14.4 17
      vertex 1.6 -17.6 17
      vertex -1.6 -17.6 17
    endloop
  endfacet
  facet normal 0 0 -1
    outer loop
      vertex 1.6 17.6 17
      vertex 1.6 14.4 17
      vertex -1.6 17.6 17
    endloop
  endfacet
  facet normal 0 0 -1
    outer loop
      vertex -1.6 17.6 17
      vertex 1.6 14.4 17
      vertex -1.6 14.4 17
    endloop
  endfacet
  facet normal 0 0 -1
    outer loop
      vertex 17.6 1.6 17
      vertex 17.6 -1.6 17
      vertex 14.4 1.6 17
    endloop
  endfacet
  facet normal 0 0 -1
    outer loop
      vertex 14.4 1.6 17
      vertex 17.6 -1.6 17
      vertex 14.4 -1.6 17
    endloop
  endfacet
endsolid OpenSCAD_Model
